G04 #@! TF.GenerationSoftware,KiCad,Pcbnew,5.1.5*
G04 #@! TF.CreationDate,2020-01-04T22:35:37-05:00*
G04 #@! TF.ProjectId,canairio_hw_pms,63616e61-6972-4696-9f5f-68775f706d73,rev?*
G04 #@! TF.SameCoordinates,PX4c1a6c0PY7ce98a0*
G04 #@! TF.FileFunction,Soldermask,Top*
G04 #@! TF.FilePolarity,Negative*
%FSLAX46Y46*%
G04 Gerber Fmt 4.6, Leading zero omitted, Abs format (unit mm)*
G04 Created by KiCad (PCBNEW 5.1.5) date 2020-01-04 22:35:37*
%MOMM*%
%LPD*%
G04 APERTURE LIST*
%ADD10C,0.100000*%
G04 APERTURE END LIST*
D10*
G36*
X32903785Y7301298D02*
G01*
X33053610Y7271496D01*
X33335874Y7154579D01*
X33589905Y6984841D01*
X33805941Y6768805D01*
X33975679Y6514774D01*
X34092596Y6232510D01*
X34152200Y5932860D01*
X34152200Y5627340D01*
X34092596Y5327690D01*
X33975679Y5045426D01*
X33805941Y4791395D01*
X33589905Y4575359D01*
X33335874Y4405621D01*
X33053610Y4288704D01*
X32903785Y4258902D01*
X32753961Y4229100D01*
X32448439Y4229100D01*
X32298615Y4258902D01*
X32148790Y4288704D01*
X31866526Y4405621D01*
X31612495Y4575359D01*
X31396459Y4791395D01*
X31226721Y5045426D01*
X31109804Y5327690D01*
X31050200Y5627340D01*
X31050200Y5932860D01*
X31109804Y6232510D01*
X31226721Y6514774D01*
X31396459Y6768805D01*
X31612495Y6984841D01*
X31866526Y7154579D01*
X32148790Y7271496D01*
X32298615Y7301298D01*
X32448439Y7331100D01*
X32753961Y7331100D01*
X32903785Y7301298D01*
G37*
G36*
X33584936Y12104593D02*
G01*
X33668343Y12096378D01*
X33828870Y12047682D01*
X33976813Y11968605D01*
X34010592Y11940883D01*
X34106486Y11862186D01*
X34185183Y11766292D01*
X34212905Y11732513D01*
X34291982Y11584570D01*
X34340678Y11424043D01*
X34357120Y11257100D01*
X34340678Y11090157D01*
X34291982Y10929630D01*
X34212905Y10781687D01*
X34185183Y10747908D01*
X34106486Y10652014D01*
X34010592Y10573317D01*
X33976813Y10545595D01*
X33828870Y10466518D01*
X33668343Y10417822D01*
X33584936Y10409607D01*
X33543233Y10405500D01*
X33079967Y10405500D01*
X33038264Y10409607D01*
X32954857Y10417822D01*
X32794330Y10466518D01*
X32646387Y10545595D01*
X32612608Y10573317D01*
X32516714Y10652014D01*
X32438017Y10747908D01*
X32410295Y10781687D01*
X32331218Y10929630D01*
X32282522Y11090157D01*
X32266080Y11257100D01*
X32282522Y11424043D01*
X32331218Y11584570D01*
X32410295Y11732513D01*
X32438017Y11766292D01*
X32516714Y11862186D01*
X32612608Y11940883D01*
X32646387Y11968605D01*
X32794330Y12047682D01*
X32954857Y12096378D01*
X33038264Y12104593D01*
X33079967Y12108700D01*
X33543233Y12108700D01*
X33584936Y12104593D01*
G37*
G36*
X31044936Y12104593D02*
G01*
X31128343Y12096378D01*
X31288870Y12047682D01*
X31436813Y11968605D01*
X31470592Y11940883D01*
X31566486Y11862186D01*
X31645183Y11766292D01*
X31672905Y11732513D01*
X31751982Y11584570D01*
X31800678Y11424043D01*
X31817120Y11257100D01*
X31800678Y11090157D01*
X31751982Y10929630D01*
X31672905Y10781687D01*
X31645183Y10747908D01*
X31566486Y10652014D01*
X31470592Y10573317D01*
X31436813Y10545595D01*
X31288870Y10466518D01*
X31128343Y10417822D01*
X31044936Y10409607D01*
X31003233Y10405500D01*
X30539967Y10405500D01*
X30498264Y10409607D01*
X30414857Y10417822D01*
X30254330Y10466518D01*
X30106387Y10545595D01*
X30072608Y10573317D01*
X29976714Y10652014D01*
X29898017Y10747908D01*
X29870295Y10781687D01*
X29791218Y10929630D01*
X29742522Y11090157D01*
X29726080Y11257100D01*
X29742522Y11424043D01*
X29791218Y11584570D01*
X29870295Y11732513D01*
X29898017Y11766292D01*
X29976714Y11862186D01*
X30072608Y11940883D01*
X30106387Y11968605D01*
X30254330Y12047682D01*
X30414857Y12096378D01*
X30498264Y12104593D01*
X30539967Y12108700D01*
X31003233Y12108700D01*
X31044936Y12104593D01*
G37*
G36*
X8204936Y12104593D02*
G01*
X8288343Y12096378D01*
X8448870Y12047682D01*
X8596813Y11968605D01*
X8630592Y11940883D01*
X8726486Y11862186D01*
X8805183Y11766292D01*
X8832905Y11732513D01*
X8911982Y11584570D01*
X8960678Y11424043D01*
X8977120Y11257100D01*
X8960678Y11090157D01*
X8911982Y10929630D01*
X8832905Y10781687D01*
X8805183Y10747908D01*
X8726486Y10652014D01*
X8630592Y10573317D01*
X8596813Y10545595D01*
X8448870Y10466518D01*
X8288343Y10417822D01*
X8204936Y10409607D01*
X8163233Y10405500D01*
X7699967Y10405500D01*
X7658264Y10409607D01*
X7574857Y10417822D01*
X7414330Y10466518D01*
X7266387Y10545595D01*
X7232608Y10573317D01*
X7136714Y10652014D01*
X7058017Y10747908D01*
X7030295Y10781687D01*
X6951218Y10929630D01*
X6902522Y11090157D01*
X6886080Y11257100D01*
X6902522Y11424043D01*
X6951218Y11584570D01*
X7030295Y11732513D01*
X7058017Y11766292D01*
X7136714Y11862186D01*
X7232608Y11940883D01*
X7266387Y11968605D01*
X7414330Y12047682D01*
X7574857Y12096378D01*
X7658264Y12104593D01*
X7699967Y12108700D01*
X8163233Y12108700D01*
X8204936Y12104593D01*
G37*
G36*
X5664936Y12104593D02*
G01*
X5748343Y12096378D01*
X5908870Y12047682D01*
X6056813Y11968605D01*
X6090592Y11940883D01*
X6186486Y11862186D01*
X6265183Y11766292D01*
X6292905Y11732513D01*
X6371982Y11584570D01*
X6420678Y11424043D01*
X6437120Y11257100D01*
X6420678Y11090157D01*
X6371982Y10929630D01*
X6292905Y10781687D01*
X6265183Y10747908D01*
X6186486Y10652014D01*
X6090592Y10573317D01*
X6056813Y10545595D01*
X5908870Y10466518D01*
X5748343Y10417822D01*
X5664936Y10409607D01*
X5623233Y10405500D01*
X5159967Y10405500D01*
X5118264Y10409607D01*
X5034857Y10417822D01*
X4874330Y10466518D01*
X4726387Y10545595D01*
X4692608Y10573317D01*
X4596714Y10652014D01*
X4518017Y10747908D01*
X4490295Y10781687D01*
X4411218Y10929630D01*
X4362522Y11090157D01*
X4346080Y11257100D01*
X4362522Y11424043D01*
X4411218Y11584570D01*
X4490295Y11732513D01*
X4518017Y11766292D01*
X4596714Y11862186D01*
X4692608Y11940883D01*
X4726387Y11968605D01*
X4874330Y12047682D01*
X5034857Y12096378D01*
X5118264Y12104593D01*
X5159967Y12108700D01*
X5623233Y12108700D01*
X5664936Y12104593D01*
G37*
G36*
X8204936Y14644593D02*
G01*
X8288343Y14636378D01*
X8448870Y14587682D01*
X8596813Y14508605D01*
X8630592Y14480883D01*
X8726486Y14402186D01*
X8805183Y14306292D01*
X8832905Y14272513D01*
X8911982Y14124570D01*
X8960678Y13964043D01*
X8977120Y13797100D01*
X8960678Y13630157D01*
X8911982Y13469630D01*
X8832905Y13321687D01*
X8805183Y13287908D01*
X8726486Y13192014D01*
X8630592Y13113317D01*
X8596813Y13085595D01*
X8448870Y13006518D01*
X8288343Y12957822D01*
X8204936Y12949607D01*
X8163233Y12945500D01*
X7699967Y12945500D01*
X7658264Y12949607D01*
X7574857Y12957822D01*
X7414330Y13006518D01*
X7266387Y13085595D01*
X7232608Y13113317D01*
X7136714Y13192014D01*
X7058017Y13287908D01*
X7030295Y13321687D01*
X6951218Y13469630D01*
X6902522Y13630157D01*
X6886080Y13797100D01*
X6902522Y13964043D01*
X6951218Y14124570D01*
X7030295Y14272513D01*
X7058017Y14306292D01*
X7136714Y14402186D01*
X7232608Y14480883D01*
X7266387Y14508605D01*
X7414330Y14587682D01*
X7574857Y14636378D01*
X7658264Y14644593D01*
X7699967Y14648700D01*
X8163233Y14648700D01*
X8204936Y14644593D01*
G37*
G36*
X5664936Y14644593D02*
G01*
X5748343Y14636378D01*
X5908870Y14587682D01*
X6056813Y14508605D01*
X6090592Y14480883D01*
X6186486Y14402186D01*
X6265183Y14306292D01*
X6292905Y14272513D01*
X6371982Y14124570D01*
X6420678Y13964043D01*
X6437120Y13797100D01*
X6420678Y13630157D01*
X6371982Y13469630D01*
X6292905Y13321687D01*
X6265183Y13287908D01*
X6186486Y13192014D01*
X6090592Y13113317D01*
X6056813Y13085595D01*
X5908870Y13006518D01*
X5748343Y12957822D01*
X5664936Y12949607D01*
X5623233Y12945500D01*
X5159967Y12945500D01*
X5118264Y12949607D01*
X5034857Y12957822D01*
X4874330Y13006518D01*
X4726387Y13085595D01*
X4692608Y13113317D01*
X4596714Y13192014D01*
X4518017Y13287908D01*
X4490295Y13321687D01*
X4411218Y13469630D01*
X4362522Y13630157D01*
X4346080Y13797100D01*
X4362522Y13964043D01*
X4411218Y14124570D01*
X4490295Y14272513D01*
X4518017Y14306292D01*
X4596714Y14402186D01*
X4692608Y14480883D01*
X4726387Y14508605D01*
X4874330Y14587682D01*
X5034857Y14636378D01*
X5118264Y14644593D01*
X5159967Y14648700D01*
X5623233Y14648700D01*
X5664936Y14644593D01*
G37*
G36*
X31044936Y14644593D02*
G01*
X31128343Y14636378D01*
X31288870Y14587682D01*
X31436813Y14508605D01*
X31470592Y14480883D01*
X31566486Y14402186D01*
X31645183Y14306292D01*
X31672905Y14272513D01*
X31751982Y14124570D01*
X31800678Y13964043D01*
X31817120Y13797100D01*
X31800678Y13630157D01*
X31751982Y13469630D01*
X31672905Y13321687D01*
X31645183Y13287908D01*
X31566486Y13192014D01*
X31470592Y13113317D01*
X31436813Y13085595D01*
X31288870Y13006518D01*
X31128343Y12957822D01*
X31044936Y12949607D01*
X31003233Y12945500D01*
X30539967Y12945500D01*
X30498264Y12949607D01*
X30414857Y12957822D01*
X30254330Y13006518D01*
X30106387Y13085595D01*
X30072608Y13113317D01*
X29976714Y13192014D01*
X29898017Y13287908D01*
X29870295Y13321687D01*
X29791218Y13469630D01*
X29742522Y13630157D01*
X29726080Y13797100D01*
X29742522Y13964043D01*
X29791218Y14124570D01*
X29870295Y14272513D01*
X29898017Y14306292D01*
X29976714Y14402186D01*
X30072608Y14480883D01*
X30106387Y14508605D01*
X30254330Y14587682D01*
X30414857Y14636378D01*
X30498264Y14644593D01*
X30539967Y14648700D01*
X31003233Y14648700D01*
X31044936Y14644593D01*
G37*
G36*
X33584936Y14644593D02*
G01*
X33668343Y14636378D01*
X33828870Y14587682D01*
X33976813Y14508605D01*
X34010592Y14480883D01*
X34106486Y14402186D01*
X34185183Y14306292D01*
X34212905Y14272513D01*
X34291982Y14124570D01*
X34340678Y13964043D01*
X34357120Y13797100D01*
X34340678Y13630157D01*
X34291982Y13469630D01*
X34212905Y13321687D01*
X34185183Y13287908D01*
X34106486Y13192014D01*
X34010592Y13113317D01*
X33976813Y13085595D01*
X33828870Y13006518D01*
X33668343Y12957822D01*
X33584936Y12949607D01*
X33543233Y12945500D01*
X33079967Y12945500D01*
X33038264Y12949607D01*
X32954857Y12957822D01*
X32794330Y13006518D01*
X32646387Y13085595D01*
X32612608Y13113317D01*
X32516714Y13192014D01*
X32438017Y13287908D01*
X32410295Y13321687D01*
X32331218Y13469630D01*
X32282522Y13630157D01*
X32266080Y13797100D01*
X32282522Y13964043D01*
X32331218Y14124570D01*
X32410295Y14272513D01*
X32438017Y14306292D01*
X32516714Y14402186D01*
X32612608Y14480883D01*
X32646387Y14508605D01*
X32794330Y14587682D01*
X32954857Y14636378D01*
X33038264Y14644593D01*
X33079967Y14648700D01*
X33543233Y14648700D01*
X33584936Y14644593D01*
G37*
G36*
X8204936Y17184593D02*
G01*
X8288343Y17176378D01*
X8448870Y17127682D01*
X8596813Y17048605D01*
X8630592Y17020883D01*
X8726486Y16942186D01*
X8805183Y16846292D01*
X8832905Y16812513D01*
X8911982Y16664570D01*
X8960678Y16504043D01*
X8977120Y16337100D01*
X8960678Y16170157D01*
X8911982Y16009630D01*
X8832905Y15861687D01*
X8805183Y15827908D01*
X8726486Y15732014D01*
X8630592Y15653317D01*
X8596813Y15625595D01*
X8448870Y15546518D01*
X8288343Y15497822D01*
X8204936Y15489607D01*
X8163233Y15485500D01*
X7699967Y15485500D01*
X7658264Y15489607D01*
X7574857Y15497822D01*
X7414330Y15546518D01*
X7266387Y15625595D01*
X7232608Y15653317D01*
X7136714Y15732014D01*
X7058017Y15827908D01*
X7030295Y15861687D01*
X6951218Y16009630D01*
X6902522Y16170157D01*
X6886080Y16337100D01*
X6902522Y16504043D01*
X6951218Y16664570D01*
X7030295Y16812513D01*
X7058017Y16846292D01*
X7136714Y16942186D01*
X7232608Y17020883D01*
X7266387Y17048605D01*
X7414330Y17127682D01*
X7574857Y17176378D01*
X7658264Y17184593D01*
X7699967Y17188700D01*
X8163233Y17188700D01*
X8204936Y17184593D01*
G37*
G36*
X5664936Y17184593D02*
G01*
X5748343Y17176378D01*
X5908870Y17127682D01*
X6056813Y17048605D01*
X6090592Y17020883D01*
X6186486Y16942186D01*
X6265183Y16846292D01*
X6292905Y16812513D01*
X6371982Y16664570D01*
X6420678Y16504043D01*
X6437120Y16337100D01*
X6420678Y16170157D01*
X6371982Y16009630D01*
X6292905Y15861687D01*
X6265183Y15827908D01*
X6186486Y15732014D01*
X6090592Y15653317D01*
X6056813Y15625595D01*
X5908870Y15546518D01*
X5748343Y15497822D01*
X5664936Y15489607D01*
X5623233Y15485500D01*
X5159967Y15485500D01*
X5118264Y15489607D01*
X5034857Y15497822D01*
X4874330Y15546518D01*
X4726387Y15625595D01*
X4692608Y15653317D01*
X4596714Y15732014D01*
X4518017Y15827908D01*
X4490295Y15861687D01*
X4411218Y16009630D01*
X4362522Y16170157D01*
X4346080Y16337100D01*
X4362522Y16504043D01*
X4411218Y16664570D01*
X4490295Y16812513D01*
X4518017Y16846292D01*
X4596714Y16942186D01*
X4692608Y17020883D01*
X4726387Y17048605D01*
X4874330Y17127682D01*
X5034857Y17176378D01*
X5118264Y17184593D01*
X5159967Y17188700D01*
X5623233Y17188700D01*
X5664936Y17184593D01*
G37*
G36*
X31044936Y17184593D02*
G01*
X31128343Y17176378D01*
X31288870Y17127682D01*
X31436813Y17048605D01*
X31470592Y17020883D01*
X31566486Y16942186D01*
X31645183Y16846292D01*
X31672905Y16812513D01*
X31751982Y16664570D01*
X31800678Y16504043D01*
X31817120Y16337100D01*
X31800678Y16170157D01*
X31751982Y16009630D01*
X31672905Y15861687D01*
X31645183Y15827908D01*
X31566486Y15732014D01*
X31470592Y15653317D01*
X31436813Y15625595D01*
X31288870Y15546518D01*
X31128343Y15497822D01*
X31044936Y15489607D01*
X31003233Y15485500D01*
X30539967Y15485500D01*
X30498264Y15489607D01*
X30414857Y15497822D01*
X30254330Y15546518D01*
X30106387Y15625595D01*
X30072608Y15653317D01*
X29976714Y15732014D01*
X29898017Y15827908D01*
X29870295Y15861687D01*
X29791218Y16009630D01*
X29742522Y16170157D01*
X29726080Y16337100D01*
X29742522Y16504043D01*
X29791218Y16664570D01*
X29870295Y16812513D01*
X29898017Y16846292D01*
X29976714Y16942186D01*
X30072608Y17020883D01*
X30106387Y17048605D01*
X30254330Y17127682D01*
X30414857Y17176378D01*
X30498264Y17184593D01*
X30539967Y17188700D01*
X31003233Y17188700D01*
X31044936Y17184593D01*
G37*
G36*
X33584936Y17184593D02*
G01*
X33668343Y17176378D01*
X33828870Y17127682D01*
X33976813Y17048605D01*
X34010592Y17020883D01*
X34106486Y16942186D01*
X34185183Y16846292D01*
X34212905Y16812513D01*
X34291982Y16664570D01*
X34340678Y16504043D01*
X34357120Y16337100D01*
X34340678Y16170157D01*
X34291982Y16009630D01*
X34212905Y15861687D01*
X34185183Y15827908D01*
X34106486Y15732014D01*
X34010592Y15653317D01*
X33976813Y15625595D01*
X33828870Y15546518D01*
X33668343Y15497822D01*
X33584936Y15489607D01*
X33543233Y15485500D01*
X33079967Y15485500D01*
X33038264Y15489607D01*
X32954857Y15497822D01*
X32794330Y15546518D01*
X32646387Y15625595D01*
X32612608Y15653317D01*
X32516714Y15732014D01*
X32438017Y15827908D01*
X32410295Y15861687D01*
X32331218Y16009630D01*
X32282522Y16170157D01*
X32266080Y16337100D01*
X32282522Y16504043D01*
X32331218Y16664570D01*
X32410295Y16812513D01*
X32438017Y16846292D01*
X32516714Y16942186D01*
X32612608Y17020883D01*
X32646387Y17048605D01*
X32794330Y17127682D01*
X32954857Y17176378D01*
X33038264Y17184593D01*
X33079967Y17188700D01*
X33543233Y17188700D01*
X33584936Y17184593D01*
G37*
G36*
X31044936Y19724593D02*
G01*
X31128343Y19716378D01*
X31288870Y19667682D01*
X31436813Y19588605D01*
X31470592Y19560883D01*
X31566486Y19482186D01*
X31645183Y19386292D01*
X31672905Y19352513D01*
X31751982Y19204570D01*
X31800678Y19044043D01*
X31817120Y18877100D01*
X31800678Y18710157D01*
X31751982Y18549630D01*
X31672905Y18401687D01*
X31645183Y18367908D01*
X31566486Y18272014D01*
X31470592Y18193317D01*
X31436813Y18165595D01*
X31288870Y18086518D01*
X31128343Y18037822D01*
X31044936Y18029607D01*
X31003233Y18025500D01*
X30539967Y18025500D01*
X30498264Y18029607D01*
X30414857Y18037822D01*
X30254330Y18086518D01*
X30106387Y18165595D01*
X30072608Y18193317D01*
X29976714Y18272014D01*
X29898017Y18367908D01*
X29870295Y18401687D01*
X29791218Y18549630D01*
X29742522Y18710157D01*
X29726080Y18877100D01*
X29742522Y19044043D01*
X29791218Y19204570D01*
X29870295Y19352513D01*
X29898017Y19386292D01*
X29976714Y19482186D01*
X30072608Y19560883D01*
X30106387Y19588605D01*
X30254330Y19667682D01*
X30414857Y19716378D01*
X30498264Y19724593D01*
X30539967Y19728700D01*
X31003233Y19728700D01*
X31044936Y19724593D01*
G37*
G36*
X33584936Y19724593D02*
G01*
X33668343Y19716378D01*
X33828870Y19667682D01*
X33976813Y19588605D01*
X34010592Y19560883D01*
X34106486Y19482186D01*
X34185183Y19386292D01*
X34212905Y19352513D01*
X34291982Y19204570D01*
X34340678Y19044043D01*
X34357120Y18877100D01*
X34340678Y18710157D01*
X34291982Y18549630D01*
X34212905Y18401687D01*
X34185183Y18367908D01*
X34106486Y18272014D01*
X34010592Y18193317D01*
X33976813Y18165595D01*
X33828870Y18086518D01*
X33668343Y18037822D01*
X33584936Y18029607D01*
X33543233Y18025500D01*
X33079967Y18025500D01*
X33038264Y18029607D01*
X32954857Y18037822D01*
X32794330Y18086518D01*
X32646387Y18165595D01*
X32612608Y18193317D01*
X32516714Y18272014D01*
X32438017Y18367908D01*
X32410295Y18401687D01*
X32331218Y18549630D01*
X32282522Y18710157D01*
X32266080Y18877100D01*
X32282522Y19044043D01*
X32331218Y19204570D01*
X32410295Y19352513D01*
X32438017Y19386292D01*
X32516714Y19482186D01*
X32612608Y19560883D01*
X32646387Y19588605D01*
X32794330Y19667682D01*
X32954857Y19716378D01*
X33038264Y19724593D01*
X33079967Y19728700D01*
X33543233Y19728700D01*
X33584936Y19724593D01*
G37*
G36*
X5664936Y19724593D02*
G01*
X5748343Y19716378D01*
X5908870Y19667682D01*
X6056813Y19588605D01*
X6090592Y19560883D01*
X6186486Y19482186D01*
X6265183Y19386292D01*
X6292905Y19352513D01*
X6371982Y19204570D01*
X6420678Y19044043D01*
X6437120Y18877100D01*
X6420678Y18710157D01*
X6371982Y18549630D01*
X6292905Y18401687D01*
X6265183Y18367908D01*
X6186486Y18272014D01*
X6090592Y18193317D01*
X6056813Y18165595D01*
X5908870Y18086518D01*
X5748343Y18037822D01*
X5664936Y18029607D01*
X5623233Y18025500D01*
X5159967Y18025500D01*
X5118264Y18029607D01*
X5034857Y18037822D01*
X4874330Y18086518D01*
X4726387Y18165595D01*
X4692608Y18193317D01*
X4596714Y18272014D01*
X4518017Y18367908D01*
X4490295Y18401687D01*
X4411218Y18549630D01*
X4362522Y18710157D01*
X4346080Y18877100D01*
X4362522Y19044043D01*
X4411218Y19204570D01*
X4490295Y19352513D01*
X4518017Y19386292D01*
X4596714Y19482186D01*
X4692608Y19560883D01*
X4726387Y19588605D01*
X4874330Y19667682D01*
X5034857Y19716378D01*
X5118264Y19724593D01*
X5159967Y19728700D01*
X5623233Y19728700D01*
X5664936Y19724593D01*
G37*
G36*
X8204936Y19724593D02*
G01*
X8288343Y19716378D01*
X8448870Y19667682D01*
X8596813Y19588605D01*
X8630592Y19560883D01*
X8726486Y19482186D01*
X8805183Y19386292D01*
X8832905Y19352513D01*
X8911982Y19204570D01*
X8960678Y19044043D01*
X8977120Y18877100D01*
X8960678Y18710157D01*
X8911982Y18549630D01*
X8832905Y18401687D01*
X8805183Y18367908D01*
X8726486Y18272014D01*
X8630592Y18193317D01*
X8596813Y18165595D01*
X8448870Y18086518D01*
X8288343Y18037822D01*
X8204936Y18029607D01*
X8163233Y18025500D01*
X7699967Y18025500D01*
X7658264Y18029607D01*
X7574857Y18037822D01*
X7414330Y18086518D01*
X7266387Y18165595D01*
X7232608Y18193317D01*
X7136714Y18272014D01*
X7058017Y18367908D01*
X7030295Y18401687D01*
X6951218Y18549630D01*
X6902522Y18710157D01*
X6886080Y18877100D01*
X6902522Y19044043D01*
X6951218Y19204570D01*
X7030295Y19352513D01*
X7058017Y19386292D01*
X7136714Y19482186D01*
X7232608Y19560883D01*
X7266387Y19588605D01*
X7414330Y19667682D01*
X7574857Y19716378D01*
X7658264Y19724593D01*
X7699967Y19728700D01*
X8163233Y19728700D01*
X8204936Y19724593D01*
G37*
G36*
X31044936Y22264593D02*
G01*
X31128343Y22256378D01*
X31288870Y22207682D01*
X31436813Y22128605D01*
X31470592Y22100883D01*
X31566486Y22022186D01*
X31645183Y21926292D01*
X31672905Y21892513D01*
X31751982Y21744570D01*
X31800678Y21584043D01*
X31817120Y21417100D01*
X31800678Y21250157D01*
X31751982Y21089630D01*
X31672905Y20941687D01*
X31645183Y20907908D01*
X31566486Y20812014D01*
X31470592Y20733317D01*
X31436813Y20705595D01*
X31288870Y20626518D01*
X31128343Y20577822D01*
X31044936Y20569607D01*
X31003233Y20565500D01*
X30539967Y20565500D01*
X30498264Y20569607D01*
X30414857Y20577822D01*
X30254330Y20626518D01*
X30106387Y20705595D01*
X30072608Y20733317D01*
X29976714Y20812014D01*
X29898017Y20907908D01*
X29870295Y20941687D01*
X29791218Y21089630D01*
X29742522Y21250157D01*
X29726080Y21417100D01*
X29742522Y21584043D01*
X29791218Y21744570D01*
X29870295Y21892513D01*
X29898017Y21926292D01*
X29976714Y22022186D01*
X30072608Y22100883D01*
X30106387Y22128605D01*
X30254330Y22207682D01*
X30414857Y22256378D01*
X30498264Y22264593D01*
X30539967Y22268700D01*
X31003233Y22268700D01*
X31044936Y22264593D01*
G37*
G36*
X8204936Y22264593D02*
G01*
X8288343Y22256378D01*
X8448870Y22207682D01*
X8596813Y22128605D01*
X8630592Y22100883D01*
X8726486Y22022186D01*
X8805183Y21926292D01*
X8832905Y21892513D01*
X8911982Y21744570D01*
X8960678Y21584043D01*
X8977120Y21417100D01*
X8960678Y21250157D01*
X8911982Y21089630D01*
X8832905Y20941687D01*
X8805183Y20907908D01*
X8726486Y20812014D01*
X8630592Y20733317D01*
X8596813Y20705595D01*
X8448870Y20626518D01*
X8288343Y20577822D01*
X8204936Y20569607D01*
X8163233Y20565500D01*
X7699967Y20565500D01*
X7658264Y20569607D01*
X7574857Y20577822D01*
X7414330Y20626518D01*
X7266387Y20705595D01*
X7232608Y20733317D01*
X7136714Y20812014D01*
X7058017Y20907908D01*
X7030295Y20941687D01*
X6951218Y21089630D01*
X6902522Y21250157D01*
X6886080Y21417100D01*
X6902522Y21584043D01*
X6951218Y21744570D01*
X7030295Y21892513D01*
X7058017Y21926292D01*
X7136714Y22022186D01*
X7232608Y22100883D01*
X7266387Y22128605D01*
X7414330Y22207682D01*
X7574857Y22256378D01*
X7658264Y22264593D01*
X7699967Y22268700D01*
X8163233Y22268700D01*
X8204936Y22264593D01*
G37*
G36*
X33584936Y22264593D02*
G01*
X33668343Y22256378D01*
X33828870Y22207682D01*
X33976813Y22128605D01*
X34010592Y22100883D01*
X34106486Y22022186D01*
X34185183Y21926292D01*
X34212905Y21892513D01*
X34291982Y21744570D01*
X34340678Y21584043D01*
X34357120Y21417100D01*
X34340678Y21250157D01*
X34291982Y21089630D01*
X34212905Y20941687D01*
X34185183Y20907908D01*
X34106486Y20812014D01*
X34010592Y20733317D01*
X33976813Y20705595D01*
X33828870Y20626518D01*
X33668343Y20577822D01*
X33584936Y20569607D01*
X33543233Y20565500D01*
X33079967Y20565500D01*
X33038264Y20569607D01*
X32954857Y20577822D01*
X32794330Y20626518D01*
X32646387Y20705595D01*
X32612608Y20733317D01*
X32516714Y20812014D01*
X32438017Y20907908D01*
X32410295Y20941687D01*
X32331218Y21089630D01*
X32282522Y21250157D01*
X32266080Y21417100D01*
X32282522Y21584043D01*
X32331218Y21744570D01*
X32410295Y21892513D01*
X32438017Y21926292D01*
X32516714Y22022186D01*
X32612608Y22100883D01*
X32646387Y22128605D01*
X32794330Y22207682D01*
X32954857Y22256378D01*
X33038264Y22264593D01*
X33079967Y22268700D01*
X33543233Y22268700D01*
X33584936Y22264593D01*
G37*
G36*
X5664936Y22264593D02*
G01*
X5748343Y22256378D01*
X5908870Y22207682D01*
X6056813Y22128605D01*
X6090592Y22100883D01*
X6186486Y22022186D01*
X6265183Y21926292D01*
X6292905Y21892513D01*
X6371982Y21744570D01*
X6420678Y21584043D01*
X6437120Y21417100D01*
X6420678Y21250157D01*
X6371982Y21089630D01*
X6292905Y20941687D01*
X6265183Y20907908D01*
X6186486Y20812014D01*
X6090592Y20733317D01*
X6056813Y20705595D01*
X5908870Y20626518D01*
X5748343Y20577822D01*
X5664936Y20569607D01*
X5623233Y20565500D01*
X5159967Y20565500D01*
X5118264Y20569607D01*
X5034857Y20577822D01*
X4874330Y20626518D01*
X4726387Y20705595D01*
X4692608Y20733317D01*
X4596714Y20812014D01*
X4518017Y20907908D01*
X4490295Y20941687D01*
X4411218Y21089630D01*
X4362522Y21250157D01*
X4346080Y21417100D01*
X4362522Y21584043D01*
X4411218Y21744570D01*
X4490295Y21892513D01*
X4518017Y21926292D01*
X4596714Y22022186D01*
X4692608Y22100883D01*
X4726387Y22128605D01*
X4874330Y22207682D01*
X5034857Y22256378D01*
X5118264Y22264593D01*
X5159967Y22268700D01*
X5623233Y22268700D01*
X5664936Y22264593D01*
G37*
G36*
X8204936Y24804593D02*
G01*
X8288343Y24796378D01*
X8448870Y24747682D01*
X8596813Y24668605D01*
X8630592Y24640883D01*
X8726486Y24562186D01*
X8805183Y24466292D01*
X8832905Y24432513D01*
X8911982Y24284570D01*
X8960678Y24124043D01*
X8977120Y23957100D01*
X8960678Y23790157D01*
X8911982Y23629630D01*
X8832905Y23481687D01*
X8805183Y23447908D01*
X8726486Y23352014D01*
X8630592Y23273317D01*
X8596813Y23245595D01*
X8448870Y23166518D01*
X8288343Y23117822D01*
X8204936Y23109607D01*
X8163233Y23105500D01*
X7699967Y23105500D01*
X7658264Y23109607D01*
X7574857Y23117822D01*
X7414330Y23166518D01*
X7266387Y23245595D01*
X7232608Y23273317D01*
X7136714Y23352014D01*
X7058017Y23447908D01*
X7030295Y23481687D01*
X6951218Y23629630D01*
X6902522Y23790157D01*
X6886080Y23957100D01*
X6902522Y24124043D01*
X6951218Y24284570D01*
X7030295Y24432513D01*
X7058017Y24466292D01*
X7136714Y24562186D01*
X7232608Y24640883D01*
X7266387Y24668605D01*
X7414330Y24747682D01*
X7574857Y24796378D01*
X7658264Y24804593D01*
X7699967Y24808700D01*
X8163233Y24808700D01*
X8204936Y24804593D01*
G37*
G36*
X33584936Y24804593D02*
G01*
X33668343Y24796378D01*
X33828870Y24747682D01*
X33976813Y24668605D01*
X34010592Y24640883D01*
X34106486Y24562186D01*
X34185183Y24466292D01*
X34212905Y24432513D01*
X34291982Y24284570D01*
X34340678Y24124043D01*
X34357120Y23957100D01*
X34340678Y23790157D01*
X34291982Y23629630D01*
X34212905Y23481687D01*
X34185183Y23447908D01*
X34106486Y23352014D01*
X34010592Y23273317D01*
X33976813Y23245595D01*
X33828870Y23166518D01*
X33668343Y23117822D01*
X33584936Y23109607D01*
X33543233Y23105500D01*
X33079967Y23105500D01*
X33038264Y23109607D01*
X32954857Y23117822D01*
X32794330Y23166518D01*
X32646387Y23245595D01*
X32612608Y23273317D01*
X32516714Y23352014D01*
X32438017Y23447908D01*
X32410295Y23481687D01*
X32331218Y23629630D01*
X32282522Y23790157D01*
X32266080Y23957100D01*
X32282522Y24124043D01*
X32331218Y24284570D01*
X32410295Y24432513D01*
X32438017Y24466292D01*
X32516714Y24562186D01*
X32612608Y24640883D01*
X32646387Y24668605D01*
X32794330Y24747682D01*
X32954857Y24796378D01*
X33038264Y24804593D01*
X33079967Y24808700D01*
X33543233Y24808700D01*
X33584936Y24804593D01*
G37*
G36*
X31044936Y24804593D02*
G01*
X31128343Y24796378D01*
X31288870Y24747682D01*
X31436813Y24668605D01*
X31470592Y24640883D01*
X31566486Y24562186D01*
X31645183Y24466292D01*
X31672905Y24432513D01*
X31751982Y24284570D01*
X31800678Y24124043D01*
X31817120Y23957100D01*
X31800678Y23790157D01*
X31751982Y23629630D01*
X31672905Y23481687D01*
X31645183Y23447908D01*
X31566486Y23352014D01*
X31470592Y23273317D01*
X31436813Y23245595D01*
X31288870Y23166518D01*
X31128343Y23117822D01*
X31044936Y23109607D01*
X31003233Y23105500D01*
X30539967Y23105500D01*
X30498264Y23109607D01*
X30414857Y23117822D01*
X30254330Y23166518D01*
X30106387Y23245595D01*
X30072608Y23273317D01*
X29976714Y23352014D01*
X29898017Y23447908D01*
X29870295Y23481687D01*
X29791218Y23629630D01*
X29742522Y23790157D01*
X29726080Y23957100D01*
X29742522Y24124043D01*
X29791218Y24284570D01*
X29870295Y24432513D01*
X29898017Y24466292D01*
X29976714Y24562186D01*
X30072608Y24640883D01*
X30106387Y24668605D01*
X30254330Y24747682D01*
X30414857Y24796378D01*
X30498264Y24804593D01*
X30539967Y24808700D01*
X31003233Y24808700D01*
X31044936Y24804593D01*
G37*
G36*
X5664936Y24804593D02*
G01*
X5748343Y24796378D01*
X5908870Y24747682D01*
X6056813Y24668605D01*
X6090592Y24640883D01*
X6186486Y24562186D01*
X6265183Y24466292D01*
X6292905Y24432513D01*
X6371982Y24284570D01*
X6420678Y24124043D01*
X6437120Y23957100D01*
X6420678Y23790157D01*
X6371982Y23629630D01*
X6292905Y23481687D01*
X6265183Y23447908D01*
X6186486Y23352014D01*
X6090592Y23273317D01*
X6056813Y23245595D01*
X5908870Y23166518D01*
X5748343Y23117822D01*
X5664936Y23109607D01*
X5623233Y23105500D01*
X5159967Y23105500D01*
X5118264Y23109607D01*
X5034857Y23117822D01*
X4874330Y23166518D01*
X4726387Y23245595D01*
X4692608Y23273317D01*
X4596714Y23352014D01*
X4518017Y23447908D01*
X4490295Y23481687D01*
X4411218Y23629630D01*
X4362522Y23790157D01*
X4346080Y23957100D01*
X4362522Y24124043D01*
X4411218Y24284570D01*
X4490295Y24432513D01*
X4518017Y24466292D01*
X4596714Y24562186D01*
X4692608Y24640883D01*
X4726387Y24668605D01*
X4874330Y24747682D01*
X5034857Y24796378D01*
X5118264Y24804593D01*
X5159967Y24808700D01*
X5623233Y24808700D01*
X5664936Y24804593D01*
G37*
G36*
X33584936Y27344593D02*
G01*
X33668343Y27336378D01*
X33828870Y27287682D01*
X33976813Y27208605D01*
X34010592Y27180883D01*
X34106486Y27102186D01*
X34185183Y27006292D01*
X34212905Y26972513D01*
X34291982Y26824570D01*
X34340678Y26664043D01*
X34357120Y26497100D01*
X34340678Y26330157D01*
X34291982Y26169630D01*
X34212905Y26021687D01*
X34185183Y25987908D01*
X34106486Y25892014D01*
X34010592Y25813317D01*
X33976813Y25785595D01*
X33828870Y25706518D01*
X33668343Y25657822D01*
X33584936Y25649607D01*
X33543233Y25645500D01*
X33079967Y25645500D01*
X33038264Y25649607D01*
X32954857Y25657822D01*
X32794330Y25706518D01*
X32646387Y25785595D01*
X32612608Y25813317D01*
X32516714Y25892014D01*
X32438017Y25987908D01*
X32410295Y26021687D01*
X32331218Y26169630D01*
X32282522Y26330157D01*
X32266080Y26497100D01*
X32282522Y26664043D01*
X32331218Y26824570D01*
X32410295Y26972513D01*
X32438017Y27006292D01*
X32516714Y27102186D01*
X32612608Y27180883D01*
X32646387Y27208605D01*
X32794330Y27287682D01*
X32954857Y27336378D01*
X33038264Y27344593D01*
X33079967Y27348700D01*
X33543233Y27348700D01*
X33584936Y27344593D01*
G37*
G36*
X31044936Y27344593D02*
G01*
X31128343Y27336378D01*
X31288870Y27287682D01*
X31436813Y27208605D01*
X31470592Y27180883D01*
X31566486Y27102186D01*
X31645183Y27006292D01*
X31672905Y26972513D01*
X31751982Y26824570D01*
X31800678Y26664043D01*
X31817120Y26497100D01*
X31800678Y26330157D01*
X31751982Y26169630D01*
X31672905Y26021687D01*
X31645183Y25987908D01*
X31566486Y25892014D01*
X31470592Y25813317D01*
X31436813Y25785595D01*
X31288870Y25706518D01*
X31128343Y25657822D01*
X31044936Y25649607D01*
X31003233Y25645500D01*
X30539967Y25645500D01*
X30498264Y25649607D01*
X30414857Y25657822D01*
X30254330Y25706518D01*
X30106387Y25785595D01*
X30072608Y25813317D01*
X29976714Y25892014D01*
X29898017Y25987908D01*
X29870295Y26021687D01*
X29791218Y26169630D01*
X29742522Y26330157D01*
X29726080Y26497100D01*
X29742522Y26664043D01*
X29791218Y26824570D01*
X29870295Y26972513D01*
X29898017Y27006292D01*
X29976714Y27102186D01*
X30072608Y27180883D01*
X30106387Y27208605D01*
X30254330Y27287682D01*
X30414857Y27336378D01*
X30498264Y27344593D01*
X30539967Y27348700D01*
X31003233Y27348700D01*
X31044936Y27344593D01*
G37*
G36*
X5664936Y27344593D02*
G01*
X5748343Y27336378D01*
X5908870Y27287682D01*
X6056813Y27208605D01*
X6090592Y27180883D01*
X6186486Y27102186D01*
X6265183Y27006292D01*
X6292905Y26972513D01*
X6371982Y26824570D01*
X6420678Y26664043D01*
X6437120Y26497100D01*
X6420678Y26330157D01*
X6371982Y26169630D01*
X6292905Y26021687D01*
X6265183Y25987908D01*
X6186486Y25892014D01*
X6090592Y25813317D01*
X6056813Y25785595D01*
X5908870Y25706518D01*
X5748343Y25657822D01*
X5664936Y25649607D01*
X5623233Y25645500D01*
X5159967Y25645500D01*
X5118264Y25649607D01*
X5034857Y25657822D01*
X4874330Y25706518D01*
X4726387Y25785595D01*
X4692608Y25813317D01*
X4596714Y25892014D01*
X4518017Y25987908D01*
X4490295Y26021687D01*
X4411218Y26169630D01*
X4362522Y26330157D01*
X4346080Y26497100D01*
X4362522Y26664043D01*
X4411218Y26824570D01*
X4490295Y26972513D01*
X4518017Y27006292D01*
X4596714Y27102186D01*
X4692608Y27180883D01*
X4726387Y27208605D01*
X4874330Y27287682D01*
X5034857Y27336378D01*
X5118264Y27344593D01*
X5159967Y27348700D01*
X5623233Y27348700D01*
X5664936Y27344593D01*
G37*
G36*
X8204936Y27344593D02*
G01*
X8288343Y27336378D01*
X8448870Y27287682D01*
X8596813Y27208605D01*
X8630592Y27180883D01*
X8726486Y27102186D01*
X8805183Y27006292D01*
X8832905Y26972513D01*
X8911982Y26824570D01*
X8960678Y26664043D01*
X8977120Y26497100D01*
X8960678Y26330157D01*
X8911982Y26169630D01*
X8832905Y26021687D01*
X8805183Y25987908D01*
X8726486Y25892014D01*
X8630592Y25813317D01*
X8596813Y25785595D01*
X8448870Y25706518D01*
X8288343Y25657822D01*
X8204936Y25649607D01*
X8163233Y25645500D01*
X7699967Y25645500D01*
X7658264Y25649607D01*
X7574857Y25657822D01*
X7414330Y25706518D01*
X7266387Y25785595D01*
X7232608Y25813317D01*
X7136714Y25892014D01*
X7058017Y25987908D01*
X7030295Y26021687D01*
X6951218Y26169630D01*
X6902522Y26330157D01*
X6886080Y26497100D01*
X6902522Y26664043D01*
X6951218Y26824570D01*
X7030295Y26972513D01*
X7058017Y27006292D01*
X7136714Y27102186D01*
X7232608Y27180883D01*
X7266387Y27208605D01*
X7414330Y27287682D01*
X7574857Y27336378D01*
X7658264Y27344593D01*
X7699967Y27348700D01*
X8163233Y27348700D01*
X8204936Y27344593D01*
G37*
G36*
X5664936Y29884593D02*
G01*
X5748343Y29876378D01*
X5908870Y29827682D01*
X6056813Y29748605D01*
X6090592Y29720883D01*
X6186486Y29642186D01*
X6265183Y29546292D01*
X6292905Y29512513D01*
X6371982Y29364570D01*
X6420678Y29204043D01*
X6437120Y29037100D01*
X6420678Y28870157D01*
X6371982Y28709630D01*
X6292905Y28561687D01*
X6265183Y28527908D01*
X6186486Y28432014D01*
X6090592Y28353317D01*
X6056813Y28325595D01*
X5908870Y28246518D01*
X5748343Y28197822D01*
X5664936Y28189607D01*
X5623233Y28185500D01*
X5159967Y28185500D01*
X5118264Y28189607D01*
X5034857Y28197822D01*
X4874330Y28246518D01*
X4726387Y28325595D01*
X4692608Y28353317D01*
X4596714Y28432014D01*
X4518017Y28527908D01*
X4490295Y28561687D01*
X4411218Y28709630D01*
X4362522Y28870157D01*
X4346080Y29037100D01*
X4362522Y29204043D01*
X4411218Y29364570D01*
X4490295Y29512513D01*
X4518017Y29546292D01*
X4596714Y29642186D01*
X4692608Y29720883D01*
X4726387Y29748605D01*
X4874330Y29827682D01*
X5034857Y29876378D01*
X5118264Y29884593D01*
X5159967Y29888700D01*
X5623233Y29888700D01*
X5664936Y29884593D01*
G37*
G36*
X33584936Y29884593D02*
G01*
X33668343Y29876378D01*
X33828870Y29827682D01*
X33976813Y29748605D01*
X34010592Y29720883D01*
X34106486Y29642186D01*
X34185183Y29546292D01*
X34212905Y29512513D01*
X34291982Y29364570D01*
X34340678Y29204043D01*
X34357120Y29037100D01*
X34340678Y28870157D01*
X34291982Y28709630D01*
X34212905Y28561687D01*
X34185183Y28527908D01*
X34106486Y28432014D01*
X34010592Y28353317D01*
X33976813Y28325595D01*
X33828870Y28246518D01*
X33668343Y28197822D01*
X33584936Y28189607D01*
X33543233Y28185500D01*
X33079967Y28185500D01*
X33038264Y28189607D01*
X32954857Y28197822D01*
X32794330Y28246518D01*
X32646387Y28325595D01*
X32612608Y28353317D01*
X32516714Y28432014D01*
X32438017Y28527908D01*
X32410295Y28561687D01*
X32331218Y28709630D01*
X32282522Y28870157D01*
X32266080Y29037100D01*
X32282522Y29204043D01*
X32331218Y29364570D01*
X32410295Y29512513D01*
X32438017Y29546292D01*
X32516714Y29642186D01*
X32612608Y29720883D01*
X32646387Y29748605D01*
X32794330Y29827682D01*
X32954857Y29876378D01*
X33038264Y29884593D01*
X33079967Y29888700D01*
X33543233Y29888700D01*
X33584936Y29884593D01*
G37*
G36*
X8204936Y29884593D02*
G01*
X8288343Y29876378D01*
X8448870Y29827682D01*
X8596813Y29748605D01*
X8630592Y29720883D01*
X8726486Y29642186D01*
X8805183Y29546292D01*
X8832905Y29512513D01*
X8911982Y29364570D01*
X8960678Y29204043D01*
X8977120Y29037100D01*
X8960678Y28870157D01*
X8911982Y28709630D01*
X8832905Y28561687D01*
X8805183Y28527908D01*
X8726486Y28432014D01*
X8630592Y28353317D01*
X8596813Y28325595D01*
X8448870Y28246518D01*
X8288343Y28197822D01*
X8204936Y28189607D01*
X8163233Y28185500D01*
X7699967Y28185500D01*
X7658264Y28189607D01*
X7574857Y28197822D01*
X7414330Y28246518D01*
X7266387Y28325595D01*
X7232608Y28353317D01*
X7136714Y28432014D01*
X7058017Y28527908D01*
X7030295Y28561687D01*
X6951218Y28709630D01*
X6902522Y28870157D01*
X6886080Y29037100D01*
X6902522Y29204043D01*
X6951218Y29364570D01*
X7030295Y29512513D01*
X7058017Y29546292D01*
X7136714Y29642186D01*
X7232608Y29720883D01*
X7266387Y29748605D01*
X7414330Y29827682D01*
X7574857Y29876378D01*
X7658264Y29884593D01*
X7699967Y29888700D01*
X8163233Y29888700D01*
X8204936Y29884593D01*
G37*
G36*
X31044936Y29884593D02*
G01*
X31128343Y29876378D01*
X31288870Y29827682D01*
X31436813Y29748605D01*
X31470592Y29720883D01*
X31566486Y29642186D01*
X31645183Y29546292D01*
X31672905Y29512513D01*
X31751982Y29364570D01*
X31800678Y29204043D01*
X31817120Y29037100D01*
X31800678Y28870157D01*
X31751982Y28709630D01*
X31672905Y28561687D01*
X31645183Y28527908D01*
X31566486Y28432014D01*
X31470592Y28353317D01*
X31436813Y28325595D01*
X31288870Y28246518D01*
X31128343Y28197822D01*
X31044936Y28189607D01*
X31003233Y28185500D01*
X30539967Y28185500D01*
X30498264Y28189607D01*
X30414857Y28197822D01*
X30254330Y28246518D01*
X30106387Y28325595D01*
X30072608Y28353317D01*
X29976714Y28432014D01*
X29898017Y28527908D01*
X29870295Y28561687D01*
X29791218Y28709630D01*
X29742522Y28870157D01*
X29726080Y29037100D01*
X29742522Y29204043D01*
X29791218Y29364570D01*
X29870295Y29512513D01*
X29898017Y29546292D01*
X29976714Y29642186D01*
X30072608Y29720883D01*
X30106387Y29748605D01*
X30254330Y29827682D01*
X30414857Y29876378D01*
X30498264Y29884593D01*
X30539967Y29888700D01*
X31003233Y29888700D01*
X31044936Y29884593D01*
G37*
G36*
X24278300Y30063000D02*
G01*
X22176300Y30063000D01*
X22176300Y32165000D01*
X24278300Y32165000D01*
X24278300Y30063000D01*
G37*
G36*
X12678300Y30063000D02*
G01*
X10576300Y30063000D01*
X10576300Y32165000D01*
X12678300Y32165000D01*
X12678300Y30063000D01*
G37*
G36*
X8204936Y32424593D02*
G01*
X8288343Y32416378D01*
X8448870Y32367682D01*
X8596813Y32288605D01*
X8630592Y32260883D01*
X8726486Y32182186D01*
X8805183Y32086292D01*
X8832905Y32052513D01*
X8911982Y31904570D01*
X8960678Y31744043D01*
X8977120Y31577100D01*
X8960678Y31410157D01*
X8911982Y31249630D01*
X8832905Y31101687D01*
X8805183Y31067908D01*
X8726486Y30972014D01*
X8630592Y30893317D01*
X8596813Y30865595D01*
X8448870Y30786518D01*
X8288343Y30737822D01*
X8204936Y30729607D01*
X8163233Y30725500D01*
X7699967Y30725500D01*
X7658264Y30729607D01*
X7574857Y30737822D01*
X7414330Y30786518D01*
X7266387Y30865595D01*
X7232608Y30893317D01*
X7136714Y30972014D01*
X7058017Y31067908D01*
X7030295Y31101687D01*
X6951218Y31249630D01*
X6902522Y31410157D01*
X6886080Y31577100D01*
X6902522Y31744043D01*
X6951218Y31904570D01*
X7030295Y32052513D01*
X7058017Y32086292D01*
X7136714Y32182186D01*
X7232608Y32260883D01*
X7266387Y32288605D01*
X7414330Y32367682D01*
X7574857Y32416378D01*
X7658264Y32424593D01*
X7699967Y32428700D01*
X8163233Y32428700D01*
X8204936Y32424593D01*
G37*
G36*
X5664936Y32424593D02*
G01*
X5748343Y32416378D01*
X5908870Y32367682D01*
X6056813Y32288605D01*
X6090592Y32260883D01*
X6186486Y32182186D01*
X6265183Y32086292D01*
X6292905Y32052513D01*
X6371982Y31904570D01*
X6420678Y31744043D01*
X6437120Y31577100D01*
X6420678Y31410157D01*
X6371982Y31249630D01*
X6292905Y31101687D01*
X6265183Y31067908D01*
X6186486Y30972014D01*
X6090592Y30893317D01*
X6056813Y30865595D01*
X5908870Y30786518D01*
X5748343Y30737822D01*
X5664936Y30729607D01*
X5623233Y30725500D01*
X5159967Y30725500D01*
X5118264Y30729607D01*
X5034857Y30737822D01*
X4874330Y30786518D01*
X4726387Y30865595D01*
X4692608Y30893317D01*
X4596714Y30972014D01*
X4518017Y31067908D01*
X4490295Y31101687D01*
X4411218Y31249630D01*
X4362522Y31410157D01*
X4346080Y31577100D01*
X4362522Y31744043D01*
X4411218Y31904570D01*
X4490295Y32052513D01*
X4518017Y32086292D01*
X4596714Y32182186D01*
X4692608Y32260883D01*
X4726387Y32288605D01*
X4874330Y32367682D01*
X5034857Y32416378D01*
X5118264Y32424593D01*
X5159967Y32428700D01*
X5623233Y32428700D01*
X5664936Y32424593D01*
G37*
G36*
X31044936Y32424593D02*
G01*
X31128343Y32416378D01*
X31288870Y32367682D01*
X31436813Y32288605D01*
X31470592Y32260883D01*
X31566486Y32182186D01*
X31645183Y32086292D01*
X31672905Y32052513D01*
X31751982Y31904570D01*
X31800678Y31744043D01*
X31817120Y31577100D01*
X31800678Y31410157D01*
X31751982Y31249630D01*
X31672905Y31101687D01*
X31645183Y31067908D01*
X31566486Y30972014D01*
X31470592Y30893317D01*
X31436813Y30865595D01*
X31288870Y30786518D01*
X31128343Y30737822D01*
X31044936Y30729607D01*
X31003233Y30725500D01*
X30539967Y30725500D01*
X30498264Y30729607D01*
X30414857Y30737822D01*
X30254330Y30786518D01*
X30106387Y30865595D01*
X30072608Y30893317D01*
X29976714Y30972014D01*
X29898017Y31067908D01*
X29870295Y31101687D01*
X29791218Y31249630D01*
X29742522Y31410157D01*
X29726080Y31577100D01*
X29742522Y31744043D01*
X29791218Y31904570D01*
X29870295Y32052513D01*
X29898017Y32086292D01*
X29976714Y32182186D01*
X30072608Y32260883D01*
X30106387Y32288605D01*
X30254330Y32367682D01*
X30414857Y32416378D01*
X30498264Y32424593D01*
X30539967Y32428700D01*
X31003233Y32428700D01*
X31044936Y32424593D01*
G37*
G36*
X33584936Y32424593D02*
G01*
X33668343Y32416378D01*
X33828870Y32367682D01*
X33976813Y32288605D01*
X34010592Y32260883D01*
X34106486Y32182186D01*
X34185183Y32086292D01*
X34212905Y32052513D01*
X34291982Y31904570D01*
X34340678Y31744043D01*
X34357120Y31577100D01*
X34340678Y31410157D01*
X34291982Y31249630D01*
X34212905Y31101687D01*
X34185183Y31067908D01*
X34106486Y30972014D01*
X34010592Y30893317D01*
X33976813Y30865595D01*
X33828870Y30786518D01*
X33668343Y30737822D01*
X33584936Y30729607D01*
X33543233Y30725500D01*
X33079967Y30725500D01*
X33038264Y30729607D01*
X32954857Y30737822D01*
X32794330Y30786518D01*
X32646387Y30865595D01*
X32612608Y30893317D01*
X32516714Y30972014D01*
X32438017Y31067908D01*
X32410295Y31101687D01*
X32331218Y31249630D01*
X32282522Y31410157D01*
X32266080Y31577100D01*
X32282522Y31744043D01*
X32331218Y31904570D01*
X32410295Y32052513D01*
X32438017Y32086292D01*
X32516714Y32182186D01*
X32612608Y32260883D01*
X32646387Y32288605D01*
X32794330Y32367682D01*
X32954857Y32416378D01*
X33038264Y32424593D01*
X33079967Y32428700D01*
X33543233Y32428700D01*
X33584936Y32424593D01*
G37*
G36*
X8204936Y34964593D02*
G01*
X8288343Y34956378D01*
X8448870Y34907682D01*
X8596813Y34828605D01*
X8630592Y34800883D01*
X8726486Y34722186D01*
X8805183Y34626292D01*
X8832905Y34592513D01*
X8911982Y34444570D01*
X8960678Y34284043D01*
X8977120Y34117100D01*
X8960678Y33950157D01*
X8911982Y33789630D01*
X8832905Y33641687D01*
X8805183Y33607908D01*
X8726486Y33512014D01*
X8630592Y33433317D01*
X8596813Y33405595D01*
X8448870Y33326518D01*
X8288343Y33277822D01*
X8204936Y33269607D01*
X8163233Y33265500D01*
X7699967Y33265500D01*
X7658264Y33269607D01*
X7574857Y33277822D01*
X7414330Y33326518D01*
X7266387Y33405595D01*
X7232608Y33433317D01*
X7136714Y33512014D01*
X7058017Y33607908D01*
X7030295Y33641687D01*
X6951218Y33789630D01*
X6902522Y33950157D01*
X6886080Y34117100D01*
X6902522Y34284043D01*
X6951218Y34444570D01*
X7030295Y34592513D01*
X7058017Y34626292D01*
X7136714Y34722186D01*
X7232608Y34800883D01*
X7266387Y34828605D01*
X7414330Y34907682D01*
X7574857Y34956378D01*
X7658264Y34964593D01*
X7699967Y34968700D01*
X8163233Y34968700D01*
X8204936Y34964593D01*
G37*
G36*
X31044936Y34964593D02*
G01*
X31128343Y34956378D01*
X31288870Y34907682D01*
X31436813Y34828605D01*
X31470592Y34800883D01*
X31566486Y34722186D01*
X31645183Y34626292D01*
X31672905Y34592513D01*
X31751982Y34444570D01*
X31800678Y34284043D01*
X31817120Y34117100D01*
X31800678Y33950157D01*
X31751982Y33789630D01*
X31672905Y33641687D01*
X31645183Y33607908D01*
X31566486Y33512014D01*
X31470592Y33433317D01*
X31436813Y33405595D01*
X31288870Y33326518D01*
X31128343Y33277822D01*
X31044936Y33269607D01*
X31003233Y33265500D01*
X30539967Y33265500D01*
X30498264Y33269607D01*
X30414857Y33277822D01*
X30254330Y33326518D01*
X30106387Y33405595D01*
X30072608Y33433317D01*
X29976714Y33512014D01*
X29898017Y33607908D01*
X29870295Y33641687D01*
X29791218Y33789630D01*
X29742522Y33950157D01*
X29726080Y34117100D01*
X29742522Y34284043D01*
X29791218Y34444570D01*
X29870295Y34592513D01*
X29898017Y34626292D01*
X29976714Y34722186D01*
X30072608Y34800883D01*
X30106387Y34828605D01*
X30254330Y34907682D01*
X30414857Y34956378D01*
X30498264Y34964593D01*
X30539967Y34968700D01*
X31003233Y34968700D01*
X31044936Y34964593D01*
G37*
G36*
X33584936Y34964593D02*
G01*
X33668343Y34956378D01*
X33828870Y34907682D01*
X33976813Y34828605D01*
X34010592Y34800883D01*
X34106486Y34722186D01*
X34185183Y34626292D01*
X34212905Y34592513D01*
X34291982Y34444570D01*
X34340678Y34284043D01*
X34357120Y34117100D01*
X34340678Y33950157D01*
X34291982Y33789630D01*
X34212905Y33641687D01*
X34185183Y33607908D01*
X34106486Y33512014D01*
X34010592Y33433317D01*
X33976813Y33405595D01*
X33828870Y33326518D01*
X33668343Y33277822D01*
X33584936Y33269607D01*
X33543233Y33265500D01*
X33079967Y33265500D01*
X33038264Y33269607D01*
X32954857Y33277822D01*
X32794330Y33326518D01*
X32646387Y33405595D01*
X32612608Y33433317D01*
X32516714Y33512014D01*
X32438017Y33607908D01*
X32410295Y33641687D01*
X32331218Y33789630D01*
X32282522Y33950157D01*
X32266080Y34117100D01*
X32282522Y34284043D01*
X32331218Y34444570D01*
X32410295Y34592513D01*
X32438017Y34626292D01*
X32516714Y34722186D01*
X32612608Y34800883D01*
X32646387Y34828605D01*
X32794330Y34907682D01*
X32954857Y34956378D01*
X33038264Y34964593D01*
X33079967Y34968700D01*
X33543233Y34968700D01*
X33584936Y34964593D01*
G37*
G36*
X5664936Y34964593D02*
G01*
X5748343Y34956378D01*
X5908870Y34907682D01*
X6056813Y34828605D01*
X6090592Y34800883D01*
X6186486Y34722186D01*
X6265183Y34626292D01*
X6292905Y34592513D01*
X6371982Y34444570D01*
X6420678Y34284043D01*
X6437120Y34117100D01*
X6420678Y33950157D01*
X6371982Y33789630D01*
X6292905Y33641687D01*
X6265183Y33607908D01*
X6186486Y33512014D01*
X6090592Y33433317D01*
X6056813Y33405595D01*
X5908870Y33326518D01*
X5748343Y33277822D01*
X5664936Y33269607D01*
X5623233Y33265500D01*
X5159967Y33265500D01*
X5118264Y33269607D01*
X5034857Y33277822D01*
X4874330Y33326518D01*
X4726387Y33405595D01*
X4692608Y33433317D01*
X4596714Y33512014D01*
X4518017Y33607908D01*
X4490295Y33641687D01*
X4411218Y33789630D01*
X4362522Y33950157D01*
X4346080Y34117100D01*
X4362522Y34284043D01*
X4411218Y34444570D01*
X4490295Y34592513D01*
X4518017Y34626292D01*
X4596714Y34722186D01*
X4692608Y34800883D01*
X4726387Y34828605D01*
X4874330Y34907682D01*
X5034857Y34956378D01*
X5118264Y34964593D01*
X5159967Y34968700D01*
X5623233Y34968700D01*
X5664936Y34964593D01*
G37*
G36*
X6786385Y39714998D02*
G01*
X6936210Y39685196D01*
X7218474Y39568279D01*
X7472505Y39398541D01*
X7688541Y39182505D01*
X7858279Y38928474D01*
X7975196Y38646210D01*
X8034800Y38346560D01*
X8034800Y38041040D01*
X7975196Y37741390D01*
X7858279Y37459126D01*
X7688541Y37205095D01*
X7472505Y36989059D01*
X7218474Y36819321D01*
X6936210Y36702404D01*
X6786385Y36672602D01*
X6636561Y36642800D01*
X6331039Y36642800D01*
X6181215Y36672602D01*
X6031390Y36702404D01*
X5749126Y36819321D01*
X5495095Y36989059D01*
X5279059Y37205095D01*
X5109321Y37459126D01*
X4992404Y37741390D01*
X4932800Y38041040D01*
X4932800Y38346560D01*
X4992404Y38646210D01*
X5109321Y38928474D01*
X5279059Y39182505D01*
X5495095Y39398541D01*
X5749126Y39568279D01*
X6031390Y39685196D01*
X6181215Y39714998D01*
X6331039Y39744800D01*
X6636561Y39744800D01*
X6786385Y39714998D01*
G37*
G36*
X28912000Y40884600D02*
G01*
X27910000Y40884600D01*
X27910000Y43686600D01*
X28912000Y43686600D01*
X28912000Y40884600D01*
G37*
G36*
X34112000Y40884600D02*
G01*
X33110000Y40884600D01*
X33110000Y43686600D01*
X34112000Y43686600D01*
X34112000Y40884600D01*
G37*
G36*
X32812000Y40884600D02*
G01*
X31810000Y40884600D01*
X31810000Y43686600D01*
X32812000Y43686600D01*
X32812000Y40884600D01*
G37*
G36*
X31512000Y40884600D02*
G01*
X30510000Y40884600D01*
X30510000Y43686600D01*
X31512000Y43686600D01*
X31512000Y40884600D01*
G37*
G36*
X30212000Y40884600D02*
G01*
X29210000Y40884600D01*
X29210000Y43686600D01*
X30212000Y43686600D01*
X30212000Y40884600D01*
G37*
G36*
X12678300Y46363000D02*
G01*
X10576300Y46363000D01*
X10576300Y48465000D01*
X12678300Y48465000D01*
X12678300Y46363000D01*
G37*
G36*
X24278300Y46363000D02*
G01*
X22176300Y46363000D01*
X22176300Y48465000D01*
X24278300Y48465000D01*
X24278300Y46363000D01*
G37*
M02*
