G04 #@! TF.GenerationSoftware,KiCad,Pcbnew,5.1.5*
G04 #@! TF.CreationDate,2020-01-04T22:35:37-05:00*
G04 #@! TF.ProjectId,canairio_hw_pms,63616e61-6972-4696-9f5f-68775f706d73,rev?*
G04 #@! TF.SameCoordinates,PX4c1a6c0PY7ce98a0*
G04 #@! TF.FileFunction,Copper,L2,Bot*
G04 #@! TF.FilePolarity,Positive*
%FSLAX46Y46*%
G04 Gerber Fmt 4.6, Leading zero omitted, Abs format (unit mm)*
G04 Created by KiCad (PCBNEW 5.1.5) date 2020-01-04 22:35:37*
%MOMM*%
%LPD*%
G04 APERTURE LIST*
%ADD10C,3.000000*%
%ADD11O,1.879600X1.500000*%
%ADD12R,0.900000X1.200000*%
%ADD13C,0.800000*%
%ADD14C,0.700000*%
G04 APERTURE END LIST*
D10*
X6483800Y38193800D03*
X32601200Y5780100D03*
D11*
X30771600Y26497100D03*
X33311600Y21417100D03*
X30771600Y31577100D03*
X33311600Y18877100D03*
X33311600Y31577100D03*
X33311600Y29037100D03*
X33311600Y11257100D03*
X30771600Y13797100D03*
X30771600Y29037100D03*
X30771600Y11257100D03*
X30771600Y16337100D03*
X33311600Y13797100D03*
X33311600Y26497100D03*
X33311600Y16337100D03*
X33311600Y34117100D03*
X30771600Y18877100D03*
X30771600Y23957100D03*
X33311600Y23957100D03*
X30771600Y34117100D03*
X30771600Y21417100D03*
X7931600Y11257100D03*
X5391600Y11257100D03*
X7931600Y13797100D03*
X5391600Y13797100D03*
X7931600Y16337100D03*
X5391600Y16337100D03*
X7931600Y18877100D03*
X5391600Y18877100D03*
X7931600Y21417100D03*
X5391600Y21417100D03*
X7931600Y23957100D03*
X5391600Y23957100D03*
X7931600Y26497100D03*
X5391600Y26497100D03*
X7931600Y29037100D03*
X5391600Y29037100D03*
X7931600Y31577100D03*
X5391600Y31577100D03*
X7931600Y34117100D03*
X5391600Y34117100D03*
D12*
X28411000Y41535600D03*
X29711000Y41535600D03*
X31011000Y41535600D03*
X32311000Y41535600D03*
X33611000Y41535600D03*
X28411000Y43035600D03*
X29711000Y43035600D03*
X31011000Y43035600D03*
X32311000Y43035600D03*
X33611000Y43035600D03*
D13*
X29711000Y45128000D03*
X27896000Y21252000D03*
D14*
X25102000Y43604000D02*
X25102000Y24046000D01*
X25102000Y24046000D02*
X27496001Y21651999D01*
X26626000Y45128000D02*
X25102000Y43604000D01*
X27496001Y21651999D02*
X27896000Y21252000D01*
X29711000Y45128000D02*
X26626000Y45128000D01*
M02*
